<svg width="196" height="196" viewBox="0 0 196 196" fill="none" xmlns="http://www.w3.org/2000/svg">
<g clip-path="url(#clip0_3_15)">
<g clip-path="url(#clip1_3_15)">
<g filter="url(#filter0_dddddd_3_15)">
<circle cx="98" cy="98" r="81.1562" fill="black"/>
</g>
<path d="M43.6173 123.891C42.4433 123.891 41.7543 123.584 41.5501 122.972C41.5501 122.308 43.7449 119.348 48.1345 114.091C52.5241 108.833 57.3475 103.142 62.6048 97.0172C67.8621 90.8411 72.6855 84.5885 77.0751 78.2594C81.4647 71.8792 83.6595 67.3875 83.6595 64.7844C83.6595 63.151 82.8173 62.3344 81.1329 62.3344C78.3767 62.3344 75.4673 63.0745 72.4048 64.5547C69.3423 65.9839 66.4584 67.8724 63.7532 70.2203C61.0991 72.5172 58.5215 75.0948 56.0204 77.9531C53.5194 80.8115 51.4012 83.6443 49.6657 86.4516C45.7355 92.5766 43.7704 97.0427 43.7704 99.85C43.7704 101.33 44.3829 102.07 45.6079 102.07C47.2923 102.07 50.023 100.641 53.8001 97.7828C57.5772 94.9245 60.9204 92.0661 63.8298 89.2078L68.1939 84.9969C68.2959 84.8948 68.4491 84.8437 68.6532 84.8437C68.9084 84.8437 69.036 84.9203 69.036 85.0734L68.8829 85.3797C68.4235 85.8391 67.7855 86.4771 66.9689 87.2937C66.2032 88.1104 64.723 89.5396 62.5282 91.5812C60.3334 93.5719 58.2663 95.3583 56.3267 96.9406C54.4381 98.4719 52.3965 99.8755 50.2017 101.152C48.0069 102.428 46.2715 103.066 44.9954 103.066C43.1579 103.066 42.2392 101.968 42.2392 99.7734C42.2392 97.5276 42.8772 94.8224 44.1532 91.6578C45.4803 88.4422 47.3689 85.099 49.8189 81.6281C52.3199 78.1573 55.1017 74.8906 58.1642 71.8281C61.2777 68.7656 64.8506 66.2391 68.8829 64.2484C72.9152 62.2578 76.922 61.2625 80.9032 61.2625C81.9241 61.2625 82.9194 61.6453 83.8892 62.4109C84.859 63.1255 85.3439 64.2484 85.3439 65.7797C85.3439 67.2599 84.7824 69.225 83.6595 71.675C82.5876 74.125 80.9543 76.9833 78.7595 80.25C76.5647 83.5167 74.523 86.4771 72.6345 89.1312C70.797 91.7344 68.3215 94.9245 65.2079 98.7016C62.1454 102.479 60.0017 105.107 58.7767 106.587C57.5517 108.017 55.7397 110.16 53.3407 113.019C53.3918 113.07 53.6215 112.942 54.0298 112.636C75.7735 92.9339 88.0491 81.8323 90.8564 79.3312C93.6637 76.8302 95.1694 75.4521 95.3735 75.1969C95.6288 74.9417 95.8074 74.763 95.9095 74.6609C96.3178 74.2526 96.8282 74.0484 97.4407 74.0484C98.1043 74.0484 98.436 74.3547 98.436 74.9672C98.436 76.4984 96.1902 80.3776 91.6985 86.6047C87.2579 92.8318 82.8173 98.7781 78.3767 104.444C73.936 110.109 71.7157 113.044 71.7157 113.248L71.7923 113.325C74.9058 110.62 81.286 104.776 90.9329 95.7922C100.631 86.7578 109.078 78.974 116.275 72.4406C123.523 65.9073 127.555 62.6406 128.372 62.6406C128.933 62.6406 129.214 62.9979 129.214 63.7125C129.214 65.0906 128.04 67.5406 125.692 71.0625C123.395 74.5844 119.261 80.1224 113.289 87.6766C113.034 87.9828 108.9 92.9339 100.886 102.53C83.2256 123.61 74.3954 135.783 74.3954 139.05C74.3954 139.254 74.5485 139.356 74.8548 139.356C75.2121 139.356 76.4881 138.769 78.6829 137.595C80.9288 136.472 82.4855 135.528 83.3532 134.763C84.2209 133.997 84.7314 133.614 84.8845 133.614C85.0376 133.614 85.1142 133.716 85.1142 133.92C85.1142 134.176 85.0631 134.354 84.961 134.456C84.3996 135.171 82.6642 136.345 79.7548 137.978C76.8965 139.611 75.0845 140.428 74.3189 140.428C73.5532 140.428 73.1704 140.096 73.1704 139.433C73.1704 136.217 75.9012 130.552 81.3626 122.436C89.9376 109.624 100.325 96.4812 112.524 83.0062C114.055 81.2708 116.888 77.851 121.022 72.7469C125.156 67.6427 127.224 64.8865 127.224 64.4781C127.224 64.376 127.198 64.325 127.147 64.325C126.841 64.325 117.398 72.849 98.8189 89.8969C80.2907 106.945 68.2959 118.072 62.8345 123.278C62.222 123.891 61.635 124.197 61.0735 124.197C59.5933 124.197 58.8532 124.018 58.8532 123.661C58.8532 123.304 59.2105 122.691 59.9251 121.823C60.6397 120.905 64.4678 116.209 71.4095 107.736C87.7428 87.7786 95.9095 77.3151 95.9095 76.3453L95.8329 76.2687C95.3736 76.4729 88.6871 82.4448 75.7735 94.1844C56.8881 111.232 46.1694 121.134 43.6173 123.891Z" fill="white"/>
<path d="M146.429 68.5916V124.273H143.112L107.604 74.7634H107.278V124.273H103.879V68.5916H107.224L142.732 118.156H143.058V68.5916H146.429Z" fill="#32A12A"/>
</g>
</g>
<defs>
<filter id="filter0_dddddd_3_15" x="-13.7812" y="-15.3125" width="223.562" height="223.562" filterUnits="userSpaceOnUse" color-interpolation-filters="sRGB">
<feFlood flood-opacity="0" result="BackgroundImageFix"/>
<feColorMatrix in="SourceAlpha" type="matrix" values="0 0 0 0 0 0 0 0 0 0 0 0 0 0 0 0 0 0 127 0" result="hardAlpha"/>
<feOffset dy="-0.0423736"/>
<feGaussianBlur stdDeviation="0.423736"/>
<feColorMatrix type="matrix" values="0 0 0 0 0 0 0 0 0 0 0 0 0 0 0 0 0 0 0.07 0"/>
<feBlend mode="normal" in2="BackgroundImageFix" result="effect1_dropShadow_3_15"/>
<feColorMatrix in="SourceAlpha" type="matrix" values="0 0 0 0 0 0 0 0 0 0 0 0 0 0 0 0 0 0 127 0" result="hardAlpha"/>
<feOffset dy="-0.10183"/>
<feGaussianBlur stdDeviation="1.0183"/>
<feColorMatrix type="matrix" values="0 0 0 0 0 0 0 0 0 0 0 0 0 0 0 0 0 0 0.0503198 0"/>
<feBlend mode="normal" in2="effect1_dropShadow_3_15" result="effect2_dropShadow_3_15"/>
<feColorMatrix in="SourceAlpha" type="matrix" values="0 0 0 0 0 0 0 0 0 0 0 0 0 0 0 0 0 0 127 0" result="hardAlpha"/>
<feOffset dy="-0.191736"/>
<feGaussianBlur stdDeviation="1.91736"/>
<feColorMatrix type="matrix" values="0 0 0 0 0 0 0 0 0 0 0 0 0 0 0 0 0 0 0.0417275 0"/>
<feBlend mode="normal" in2="effect2_dropShadow_3_15" result="effect3_dropShadow_3_15"/>
<feColorMatrix in="SourceAlpha" type="matrix" values="0 0 0 0 0 0 0 0 0 0 0 0 0 0 0 0 0 0 127 0" result="hardAlpha"/>
<feOffset dy="-0.342025"/>
<feGaussianBlur stdDeviation="3.42025"/>
<feColorMatrix type="matrix" values="0 0 0 0 0 0 0 0 0 0 0 0 0 0 0 0 0 0 0.035 0"/>
<feBlend mode="normal" in2="effect3_dropShadow_3_15" result="effect4_dropShadow_3_15"/>
<feColorMatrix in="SourceAlpha" type="matrix" values="0 0 0 0 0 0 0 0 0 0 0 0 0 0 0 0 0 0 127 0" result="hardAlpha"/>
<feOffset dy="-0.63972"/>
<feGaussianBlur stdDeviation="6.3972"/>
<feColorMatrix type="matrix" values="0 0 0 0 0 0 0 0 0 0 0 0 0 0 0 0 0 0 0.0282725 0"/>
<feBlend mode="normal" in2="effect4_dropShadow_3_15" result="effect5_dropShadow_3_15"/>
<feColorMatrix in="SourceAlpha" type="matrix" values="0 0 0 0 0 0 0 0 0 0 0 0 0 0 0 0 0 0 127 0" result="hardAlpha"/>
<feOffset dy="-1.53125"/>
<feGaussianBlur stdDeviation="15.3125"/>
<feColorMatrix type="matrix" values="0 0 0 0 0 0 0 0 0 0 0 0 0 0 0 0 0 0 0.0196802 0"/>
<feBlend mode="normal" in2="effect5_dropShadow_3_15" result="effect6_dropShadow_3_15"/>
<feBlend mode="normal" in="SourceGraphic" in2="effect6_dropShadow_3_15" result="shape"/>
</filter>
<clipPath id="clip0_3_15">
<rect width="196" height="196" fill="white"/>
</clipPath>
<clipPath id="clip1_3_15">
<rect width="196" height="196" fill="white"/>
</clipPath>
</defs>
</svg>
