<svg width="196" height="196" viewBox="0 0 196 196" fill="none" xmlns="http://www.w3.org/2000/svg">
<g clip-path="url(#clip0_3_15)">
<rect width="196" height="196" rx="3.0625" fill="black"/>
<path d="M39.6588 118.667C40.4168 119.769 41.2092 120.321 42.0361 120.321C43.3453 120.321 44.2066 119.7 44.6201 118.46L54.956 67.814H59.9173L77.1783 115.049L78.1085 118.253L78.9354 115.049L96.4031 67.814H101.158L112.734 124.352H107.979L98.677 77.8398L98.1602 74.6357L97.23 77.8398L80.4858 124.352H75.6279L58.8837 77.9432L57.9534 74.6357L49.1679 119.08C48.8234 120.665 47.9965 122.043 46.6873 123.215C45.378 124.386 43.8966 124.972 42.2428 124.972C40.658 124.972 39.2454 124.558 38.0051 123.731C36.7648 122.836 35.869 121.733 35.3177 120.424L39.6588 118.667Z" fill="white"/>
<path d="M124.064 124.352V63.2662H129.749L148.87 111.018V63.2662H154.762V124.352H148.87L129.955 78.3566V124.352H124.064Z" fill="#5CD254"/>
</g>
<defs>
<clipPath id="clip0_3_15">
<rect width="196" height="196" fill="white"/>
</clipPath>
</defs>
</svg>
